<?xml version="1.0" encoding="UTF-8"?>
<!DOCTYPE svg PUBLIC "-//W3C//DTD SVG 1.1//EN" "http://www.w3.org/Graphics/SVG/1.1/DTD/svg11.dtd">
<!-- Creator: CorelDRAW -->
<svg xmlns="http://www.w3.org/2000/svg" xml:space="preserve" width="64px" height="64px" shape-rendering="geometricPrecision" text-rendering="geometricPrecision" image-rendering="optimizeQuality" fill-rule="evenodd" clip-rule="evenodd"
viewBox="0 0 640 640"
 xmlns:xlink="http://www.w3.org/1999/xlink">
 <g id="Layer_x0020_1">
  <metadata id="CorelCorpID_0Corel-Layer"/>
  <path fill="black" d="M319.965 0.0236223c-176.719,0 -319.965,143.258 -319.965,319.976 0,135.628 84.3908,251.33 203.412,297.913 -2.72838,-25.2405 -5.36227,-64.2055 1.14568,-91.7728 5.77566,-24.9688 37.5359,-158.99 37.5359,-158.99 0,0 -9.50799,-19.2168 -9.50799,-47.4691 0,-44.4572 25.8074,-77.7411 57.8393,-77.7411 27.2838,0 40.5359,20.4924 40.5359,45.0124 0,27.4255 -17.4569,68.5048 -26.5397,106.454 -7.66545,31.8902 15.8742,57.8393 47.3155,57.8393 56.8353,0 100.56,-60.0244 100.56,-146.588 0,-76.5718 -55.1227,-130.147 -133.608,-130.147 -91.0405,0 -144.403,68.2449 -144.403,138.911 0,27.5673 10.5238,56.9653 23.8231,72.993 2.57483,3.18902 3.04728,5.90558 2.16144,9.22452 -2.44491,10.0985 -7.80718,31.902 -8.95287,36.3312 -1.42915,5.9174 -4.61817,7.06308 -10.6655,4.34651 -39.969,-18.6026 -64.9024,-77.0561 -64.9024,-123.911 0,-101.009 73.2647,-193.62 211.349,-193.62 110.942,0 197.223,79.0403 197.223,184.798 0,110.234 -69.5324,199.101 -166.053,199.101 -32.4571,0 -62.8827,-16.89 -73.3237,-36.7918 0,0 -16.0159,61.0283 -19.89,76.0403 -7.20481,27.8271 -26.6814,62.5992 -39.8036,83.8357 30.0122,9.23633 61.7134,14.2679 94.7846,14.2679 176.719,0 319.965,-143.246 319.965,-319.965 0,-176.86 -143.246,-320.106 -319.965,-320.106l-0.070867 0.0590558z"/>
 </g>
</svg>
