<?xml version="1.0" standalone="no"?>
<!DOCTYPE svg PUBLIC "-//W3C//DTD SVG 20010904//EN"
 "http://www.w3.org/TR/2001/REC-SVG-20010904/DTD/svg10.dtd">
<svg version="1.0" xmlns="http://www.w3.org/2000/svg"
 width="1118.000000pt" height="1049.000000pt" viewBox="0 0 1118.000000 1049.000000"
 preserveAspectRatio="xMidYMid meet">

<g transform="translate(0.000000,1049.000000) scale(0.100000,-0.100000)"
fill="#000000" stroke="none">
<path d="M5356 10289 c-696 -31 -1372 -207 -1996 -520 -516 -259 -901 -534
-1306 -935 -1344 -1330 -1824 -3313 -1238 -5116 60 -184 110 -313 204 -524 84
-188 198 -402 305 -574 325 -520 749 -985 1233 -1353 510 -387 1134 -691 1747
-852 932 -245 1912 -220 2814 70 788 254 1441 653 2022 1234 332 333 574 647
814 1059 68 117 254 496 283 577 6 17 33 90 61 162 157 412 262 885 301 1363
15 174 15 606 0 780 -75 909 -373 1742 -887 2486 -168 243 -322 424 -572 675
-253 253 -429 402 -676 572 -699 485 -1467 772 -2324 872 -117 14 -539 37
-596 33 -11 0 -96 -5 -189 -9z m489 -239 c243 -16 359 -29 545 -61 981 -165
1880 -629 2585 -1334 654 -654 1092 -1456 1294 -2372 192 -867 127 -1824 -181
-2653 -144 -388 -285 -665 -514 -1011 -346 -523 -815 -992 -1334 -1334 -234
-154 -466 -283 -671 -374 -553 -243 -1086 -377 -1656 -416 -142 -10 -542 -7
-698 5 -808 61 -1591 333 -2280 793 -281 188 -478 350 -726 597 -398 398 -674
787 -929 1312 -106 219 -153 335 -231 571 -102 309 -169 613 -211 957 -30 238
-32 802 -5 1041 109 967 478 1836 1095 2579 127 152 437 462 587 586 665 549
1413 898 2245 1048 348 62 767 88 1085 66z"/>
<path d="M4170 8715 c-8 -2 -49 -9 -90 -15 -93 -15 -239 -61 -338 -106 -297
-136 -530 -407 -636 -741 -61 -196 -70 -266 -71 -548 0 -233 2 -272 23 -374
95 -467 315 -801 632 -961 150 -75 300 -113 515 -130 538 -43 957 179 1177
625 45 92 116 291 107 299 -2 2 -84 24 -182 49 -124 32 -179 42 -182 34 -63
-217 -98 -293 -181 -404 -147 -192 -365 -293 -635 -293 -363 0 -656 185 -789
498 -141 331 -156 791 -38 1162 51 161 116 268 224 371 112 105 219 163 372
201 118 30 383 32 481 4 239 -66 399 -221 496 -481 15 -38 28 -72 30 -73 7 -7
355 80 355 88 0 18 -54 158 -83 215 -159 318 -450 523 -812 575 -62 9 -337 12
-375 5z"/>
<path d="M6590 8635 c-319 -65 -570 -282 -669 -579 -48 -146 -64 -257 -64
-456 0 -199 15 -308 65 -458 75 -226 252 -424 462 -517 143 -63 348 -94 510
-76 440 47 735 305 821 718 45 218 41 498 -11 701 -88 350 -349 601 -693 666
-101 19 -328 20 -421 1z m353 -280 c156 -40 293 -155 366 -306 72 -150 103
-362 82 -573 -14 -146 -35 -224 -86 -332 -70 -145 -205 -261 -351 -299 -77
-20 -232 -20 -309 0 -167 44 -314 183 -380 359 -92 245 -81 637 25 851 72 146
206 258 360 299 72 19 221 20 293 1z"/>
<path d="M5838 6080 c-1 -5 -2 -86 0 -180 l3 -170 1355 0 1354 0 -2 178 -3
177 -1352 3 c-886 1 -1352 -1 -1355 -8z"/>
<path d="M6997 4790 c-512 -59 -919 -392 -1075 -880 -56 -176 -74 -294 -79
-525 -5 -181 -2 -227 15 -330 37 -214 122 -433 233 -600 150 -224 423 -419
693 -495 325 -91 716 -55 1010 92 235 117 429 313 549 554 155 309 203 734
126 1114 -113 562 -492 949 -1034 1055 -97 19 -332 27 -438 15z m377 -325
c387 -82 654 -384 730 -827 60 -343 5 -735 -134 -970 -115 -193 -303 -342
-513 -407 -220 -67 -512 -45 -710 55 -192 97 -355 273 -438 472 -77 185 -109
423 -90 673 19 250 55 399 137 560 110 215 353 390 614 444 89 18 318 18 404
0z"/>
<path d="M3130 3350 l0 -1402 613 5 c518 4 628 7 717 22 459 75 733 316 891
783 118 350 117 865 -3 1217 -124 363 -358 609 -678 709 -170 54 -232 58 -912
63 l-628 5 0 -1402z m1210 1060 c175 -19 269 -52 379 -136 78 -58 178 -183
225 -278 158 -320 156 -943 -4 -1283 -92 -198 -204 -307 -379 -371 -139 -50
-178 -54 -633 -59 l-428 -5 0 1071 0 1071 373 0 c204 0 415 -5 467 -10z"/>
</g>
</svg>
