<?xml version="1.0" standalone="no"?>
<!DOCTYPE svg PUBLIC "-//W3C//DTD SVG 20010904//EN"
 "http://www.w3.org/TR/2001/REC-SVG-20010904/DTD/svg10.dtd">
<svg version="1.0" xmlns="http://www.w3.org/2000/svg"
 width="1151.000000pt" height="1038.000000pt" viewBox="0 0 1151.000000 1038.000000"
 preserveAspectRatio="xMidYMid meet">

<g transform="translate(0.000000,1038.000000) scale(0.100000,-0.100000)"
fill="#000000" stroke="none">
<path d="M0 5190 l0 -5190 5755 0 5755 0 0 5190 0 5190 -5755 0 -5755 0 0
-5190z m5925 5010 c812 -40 1531 -246 2250 -646 377 -210 734 -482 1071 -819
417 -417 693 -801 954 -1330 267 -540 416 -1048 492 -1670 29 -243 32 -826 5
-1060 -51 -437 -123 -760 -257 -1150 -87 -254 -246 -607 -370 -820 -354 -609
-800 -1117 -1340 -1527 -447 -338 -919 -585 -1466 -767 -742 -246 -1565 -313
-2337 -191 -741 118 -1387 369 -2021 788 -622 409 -1174 999 -1559 1662 -127
220 -289 569 -380 820 -374 1038 -390 2226 -41 3265 376 1123 1111 2061 2099
2682 733 460 1566 722 2425 763 232 11 258 11 475 0z"/>
<path d="M5515 9963 c-771 -32 -1498 -239 -2185 -623 -222 -124 -551 -356
-755 -532 -665 -575 -1156 -1315 -1429 -2155 -210 -649 -278 -1327 -201 -2017
58 -520 218 -1069 450 -1541 339 -690 794 -1246 1416 -1727 105 -81 364 -252
513 -338 310 -178 726 -353 1071 -449 276 -77 552 -129 865 -163 178 -19 739
-16 925 5 463 54 861 152 1270 314 500 198 945 464 1335 798 520 446 906 942
1200 1540 248 506 393 1002 466 1595 23 184 27 814 6 980 -67 543 -161 913
-347 1370 -174 428 -451 881 -770 1259 -108 129 -332 358 -457 468 -494 439
-1053 763 -1673 971 -428 144 -818 217 -1290 242 -180 9 -248 10 -410 3z
m-936 -1334 c408 -38 713 -239 884 -584 42 -86 92 -214 85 -221 -8 -7 -351
-84 -356 -79 -3 3 -22 45 -42 93 -102 247 -250 389 -475 454 -69 20 -102 23
-245 23 -140 -1 -178 -4 -250 -24 -265 -71 -460 -239 -561 -483 -40 -98 -86
-288 -100 -415 -14 -132 -6 -381 17 -513 32 -186 97 -363 174 -475 98 -143
257 -251 456 -311 79 -24 107 -27 239 -28 127 -1 163 3 235 22 279 76 476 281
565 587 14 49 27 91 29 93 4 3 357 -85 362 -91 9 -9 -58 -195 -105 -292 -118
-242 -276 -407 -496 -517 -166 -83 -338 -120 -560 -120 -385 0 -659 94 -877
300 -266 251 -428 691 -428 1162 0 728 357 1237 972 1385 169 41 304 50 477
34z m2551 -85 c274 -57 509 -242 621 -490 77 -170 104 -336 96 -596 -9 -285
-51 -448 -159 -609 -185 -276 -526 -426 -889 -389 -384 38 -658 250 -775 600
-52 155 -67 283 -61 505 6 193 17 267 59 395 108 331 386 554 749 599 93 12
261 5 359 -15z m1520 -2724 l0 -180 -1355 0 -1355 0 0 180 0 180 1355 0 1355
0 0 -180z m-1128 -1129 c593 -102 983 -530 1074 -1178 24 -173 15 -453 -21
-622 -118 -563 -473 -926 -1018 -1043 -135 -28 -406 -31 -542 -5 -276 54 -486
166 -680 362 -169 171 -277 367 -344 626 -95 367 -55 825 99 1156 177 380 528
641 950 708 131 20 348 19 482 -4z m-3016 -42 c287 -28 482 -111 656 -281 258
-253 380 -605 380 -1093 0 -409 -87 -724 -270 -978 -142 -198 -324 -318 -576
-382 -171 -43 -243 -48 -863 -52 l-593 -4 0 1400 0 1401 578 0 c333 0 625 -5
688 -11z"/>
<path d="M6745 8261 c-178 -51 -318 -192 -386 -388 -63 -183 -66 -494 -7 -698
64 -223 231 -386 436 -426 91 -17 232 -7 313 23 263 97 399 352 399 748 0 406
-159 668 -455 746 -70 19 -227 16 -300 -5z"/>
<path d="M7190 4393 c-196 -19 -366 -87 -517 -208 -227 -182 -333 -444 -350
-865 -15 -408 79 -701 296 -918 180 -180 387 -262 661 -262 263 1 470 82 645
255 206 203 305 486 305 870 -1 510 -190 870 -545 1040 -157 74 -326 105 -495
88z"/>
<path d="M3602 3263 l3 -1068 400 1 c416 0 505 7 632 50 320 107 489 398 523
901 18 258 -15 530 -84 700 -70 171 -218 340 -357 406 -137 66 -172 69 -672
74 l-447 5 2 -1069z"/>
</g>
</svg>
